<svg width="22" height="22" viewBox="0 0 22 22" fill="none" xmlns="http://www.w3.org/2000/svg">
<path d="M10.5 14L7.5 11M10.5 14C11.8968 13.4686 13.2368 12.7986 14.5 12M10.5 14V19C10.5 19 13.53 18.45 14.5 17C15.58 15.38 14.5 12 14.5 12M7.5 11C8.03191 9.61933 8.70198 8.29594 9.5 7.05001C10.6651 5.18693 12.2876 3.65294 14.213 2.59397C16.1383 1.535 18.3026 0.986283 20.5 1.00001C20.524 3.19358 19.985 5.35664 18.9345 7.28248C17.8841 9.20832 16.3573 10.8326 14.5 12M7.5 11H2.5C2.5 11 3.05 7.97001 4.5 7.00001C6.12 5.92001 9.5 7.00001 9.5 7.00001M3 15.5C1.5 16.76 1 20.5 1 20.5C1 20.5 4.74 20 6 18.5C6.35112 18.0934 6.53538 17.569 6.51575 17.0321C6.49612 16.4953 6.27404 15.9857 5.89417 15.6058C5.51429 15.226 5.00476 15.0039 4.4679 14.9843C3.93103 14.9646 3.4066 15.1489 3 15.5Z" stroke="#5D8BF4" stroke-width="2" stroke-linecap="round" stroke-linejoin="round"/>
</svg>
