<svg width="20" height="21" viewBox="0 0 20 21" fill="none" xmlns="http://www.w3.org/2000/svg">
<path d="M13.546 8.44404C13.919 7.77404 14.231 7.17395 14.424 6.72395C14.8867 5.65438 14.9104 4.44586 14.49 3.35896C14.0697 2.27207 13.2389 1.39396 12.177 0.914016C11.6773 0.678608 11.1352 0.546733 10.5833 0.526442C10.0313 0.506151 9.48096 0.597888 8.96538 0.795974C8.4498 0.994059 7.97965 1.29439 7.58327 1.67903C7.18689 2.06367 6.87248 2.52462 6.65898 3.03401C6.21968 2.69914 5.71708 2.4567 5.18154 2.32136C4.64599 2.18603 4.08861 2.16056 3.54296 2.24654C2.99731 2.33251 2.47472 2.52816 2.00673 2.82161C1.53874 3.11506 1.13505 3.50021 0.819995 3.95393C0.148137 4.90202 -0.127841 6.07463 0.0506466 7.22285C0.229134 8.37107 0.848032 9.40455 1.77599 10.104C3.12557 11.0246 4.53167 11.8596 5.98598 12.604M14.297 10.264C14.2245 9.71577 14.0413 9.18801 13.7586 8.71272C13.4759 8.23744 13.0996 7.82454 12.6525 7.4991C12.2054 7.17366 11.6968 6.94246 11.1576 6.81953C10.6185 6.6966 10.06 6.68454 9.51598 6.78401C8.3701 6.98067 7.34584 7.6157 6.6602 8.55464C5.97457 9.49358 5.68144 10.6627 5.84297 11.814C6.43648 14.5552 7.19895 17.257 8.12599 19.904C8.16045 20.0588 8.22574 20.205 8.31798 20.3339C8.38466 20.4045 8.47112 20.4533 8.566 20.474C8.72212 20.4912 8.88011 20.4777 9.03099 20.434C11.7875 19.9085 14.5097 19.2172 17.183 18.364C18.2658 17.9333 19.1362 17.0947 19.6066 16.0285C20.077 14.9624 20.1098 13.7541 19.698 12.664C19.5111 12.1447 19.221 11.6685 18.8452 11.2642C18.4694 10.86 18.0156 10.5361 17.5113 10.3118C17.0069 10.0876 16.4624 9.96776 15.9105 9.95955C15.3586 9.95133 14.8108 10.0549 14.3 10.264H14.297Z" fill="black"/>
</svg>
