<svg id="그림" xmlns="http://www.w3.org/2000/svg" width="300.851" height="210.36" viewBox="0 0 300.851 210.36">
  <rect id="사각형_8" data-name="사각형 8" width="300.851" height="0.917" transform="translate(0 199.196)" fill="#3f3d56"/>
  <g id="그림-2" data-name="그림" transform="translate(74.854 0)">
    <path id="패스_164" data-name="패스 164" d="M304.817,176.074a35.283,35.283,0,0,0-34.792-29.429H198.5a35.262,35.262,0,0,0-35.282,35.281v62.319A35.254,35.254,0,0,0,198.5,279.523h71.524A35.262,35.262,0,0,0,305.3,244.245V181.926a35.347,35.347,0,0,0-.486-5.852ZM276.077,278.019a34.525,34.525,0,0,1-6.053.533H198.5a34.277,34.277,0,0,1-34.307-34.307V223.559c0-58.45,47.381-75.94,105.831-75.94a34.307,34.307,0,0,1,34.307,34.307v62.319c-45.995,6.155-12.194,30.917-28.254,33.773Z" transform="translate(-163.219 -79.391)" fill="#3b8686"/>
    <path id="패스_165" data-name="패스 165" d="M349.162,239.135l2.752,17.886,40.358-5.5-3.9-20.9Z" transform="translate(-263.886 -124.854)" fill="#6c63ff"/>
    <rect id="사각형_9" data-name="사각형 9" width="16.686" height="17.272" transform="translate(100.264 13.915)" fill="#2f2e41"/>
    <path id="패스_166" data-name="패스 166" d="M385.162,55.569l4.128-12.383h8.045l.423,12.383Z" transform="translate(-283.376 -23.381)" fill="#ffb6b6"/>
    <path id="패스_167" data-name="패스 167" d="M385.162,55.569l4.128-12.383h8.045l.423,12.383Z" transform="translate(-283.376 -23.381)" opacity="0.1" style="isolation: isolate"/>
    <path id="패스_168" data-name="패스 168" d="M393.579,308.346l-.459,47.7-.459,3.669v5.267l6.879.7L400,355.125s7.338-20.638,5.5-36.689-.917-11.465-.917-11.465Z" transform="translate(-287.436 -165.861)" fill="#ffb6b6"/>
    <path id="패스_169" data-name="패스 169" d="M373.01,312.027l-16.923,44.595-.907,3.584-1.916,4.906-6.661-1.855,3.41-9.992s.672-21.893,8.22-36.177,5.025-10.346,5.025-10.346l9.752,5.286Z" transform="translate(-262.5 -165.796)" fill="#ffb6b6"/>
    <path id="패스_170" data-name="패스 170" d="M368.615,65.292l-12.383,5.5,7.906,40.822-1.249,58.591-8.255,17.427s-1.383,9.967,12.834,3.546,30.268-8.255,30.268-8.255l-3.9-26.829L390.4,85.7l.459-15.593-10.09-6.421Z" transform="translate(-266.829 -34.479)" fill="#79bd9a"/>
    <path id="패스_171" data-name="패스 171" d="M353.9,190.06l-13.741-23,15.7-53.652-7.448-40.822,13.066-5.594s6.764,6.587,6.764,12.02S353.9,190.06,353.9,190.06Z" transform="translate(-259.013 -36.267)" fill="#e6e6e6"/>
    <path id="패스_172" data-name="패스 172" d="M420.343,185.474,407.871,78.329a7.173,7.173,0,0,1,.666-3.949l3.569-7.39,13.988,3.988-5.623,43.8,15.024,43.1Z" transform="translate(-295.644 -36.267)" fill="#e6e6e6"/>
    <path id="패스_173" data-name="패스 173" d="M397.236,430.01s-8.714-5.045-9.631-2.293a46.914,46.914,0,0,0-1.376,5.045s-2.293,8.714,4.586,8.714,6.421-3.963,6.421-3.963Z" transform="translate(-283.755 -231.115)" fill="#2f2e41"/>
    <path id="패스_174" data-name="패스 174" d="M341.015,427.13s9.952-1.529,9.805,1.368a46.918,46.918,0,0,1-.554,5.2s-1.034,8.951-7.442,6.448-4.539-6.027-4.539-6.027l2.729-6.988Z" transform="translate(-257.86 -231.024)" fill="#2f2e41"/>
    <circle id="타원_35" data-name="타원 35" cx="11.401" cy="11.401" r="11.401" transform="translate(99.072 3.743)" fill="#ffb6b6"/>
    <path id="패스_175" data-name="패스 175" d="M387.218,4.984C386.687,2.173,383.8.272,380.951.033s-5.643.838-8.21,2.1a19.43,19.43,0,0,0-4.863,3.152,8.6,8.6,0,0,0-2.757,4.994,7.2,7.2,0,0,1-.356,2.018,19.1,19.1,0,0,1-1.545,2.044,3.2,3.2,0,0,0,.8,4.117,13.072,13.072,0,0,0-4.35,2.566,4.449,4.449,0,0,0-1.223,4.639c.231.554.612,1.038.809,1.6a3.63,3.63,0,0,1-.646,3.222,10.729,10.729,0,0,1-2.523,2.28,25.586,25.586,0,0,0,7.186.609,10.816,10.816,0,0,0,6.554-2.73,6.925,6.925,0,0,0,2.073-6.579c-.478-1.785-1.816-3.349-1.815-5.2a7.5,7.5,0,0,1,1.571-3.895l5.053-7.816a3.682,3.682,0,0,1,1.1-1.24,2.965,2.965,0,0,1,2.73.132A16.523,16.523,0,0,0,383.1,7.291a3.944,3.944,0,0,0,4.625-2.51" transform="translate(-267.636 0)" fill="#2f2e41"/>
    <path id="패스_176" data-name="패스 176" d="M400.977,33.167a8.272,8.272,0,0,1-3.588,1.589,4.81,4.81,0,0,0-3.19,2.152,3.216,3.216,0,0,0,.774,3.561,5,5,0,0,0,3.571,1.271,11.7,11.7,0,0,0,3.78-.839,36.8,36.8,0,0,0,9.343-5.008,3.781,3.781,0,0,1-2.526-4.509c.43-1.5,1.745-2.543,2.64-3.819a10.16,10.16,0,0,0,1.287-7.729,30.151,30.151,0,0,0-2.9-7.483,8.4,8.4,0,0,0-1.347-2.147,2.838,2.838,0,0,0-2.26-.965c-1.4.146-2.294,1.683-2.3,3.091a12.269,12.269,0,0,0,1.077,4.059,10.2,10.2,0,0,1,.689,4.262,6.844,6.844,0,0,1-1.26,3.376c-.549.761-1.25,1.4-1.847,2.124a4.2,4.2,0,0,0-.993,1.909c-.221,1.3.543,2.62.333,3.924A2.78,2.78,0,0,1,399.2,34.2" transform="translate(-288.13 -4.996)" fill="#2f2e41"/>
    <g id="동그라미" transform="translate(38.996 109.446)">
      <circle id="타원_36" data-name="타원 36" cx="38.982" cy="38.982" r="38.982" fill="#a8dba8"/>
      <g id="그룹_174" data-name="그룹 174" transform="translate(14.843 20.218)">
        <path id="패스_177" data-name="패스 177" d="M339.053,298.365h-4.846a18.777,18.777,0,0,0-32.99-8.816q-.034.038-.065.079a1.564,1.564,0,0,0,2.477,1.911,15.645,15.645,0,0,1,27.4,6.826h-4.273a.782.782,0,0,0-.6,1.283l6.151,7.383a.782.782,0,0,0,1.2,0l6.151-7.383a.782.782,0,0,0-.6-1.283Z" transform="translate(-291.557 -282.729)" fill="#fff"/>
        <path id="패스_178" data-name="패스 178" d="M319.013,326.448a1.564,1.564,0,0,0-2.194.283,15.649,15.649,0,0,1-27.4-6.826H293.7a.782.782,0,0,0,.6-1.283l-6.151-7.383a.782.782,0,0,0-1.1-.1.774.774,0,0,0-.1.1l-6.151,7.383a.782.782,0,0,0,.6,1.283h4.846a18.777,18.777,0,0,0,32.99,8.816q.034-.038.065-.079a1.564,1.564,0,0,0-.283-2.194Z" transform="translate(-280.614 -298.011)" fill="#fff"/>
      </g>
    </g>
    <path id="uuid-da16df1e-5659-4232-96f6-61e8c639a9ec" d="M347.681,214.591c-.472,3.378-2.6,5.873-4.748,5.572s-3.509-3.283-3.037-6.662a8.537,8.537,0,0,1,1.434-3.768l2.181-14.289,6.683,1.166-2.86,13.962a8.538,8.538,0,0,1,.346,4.018Z" transform="translate(-258.819 -105.811)" fill="#ffb6b6"/>
    <path id="패스_179" data-name="패스 179" d="M354.465,77.341s-6.879-2.293-7.8,5.962-1.834,18.345-1.834,18.345-4.128,9.631-2.293,14.676,5.045,1.528,1.834,5.809-2.763,18.366-2.763,18.366l10.33-.52s5.733-37.872,5.733-38.789-3.21-23.848-3.21-23.848h0Z" transform="translate(-259.787 -41.713)" fill="#e6e6e6"/>
    <g id="팔" transform="translate(125.166 35.216)">
      <path id="uuid-6bf35aa9-e432-4b51-af77-8f4eb19e6e42" d="M457.875,212.433c.128,3.409-1.527,6.238-3.7,6.319s-4.031-2.616-4.158-6.026a8.537,8.537,0,0,1,.751-3.961l-.359-14.45,6.784-.024-.366,14.247a8.538,8.538,0,0,1,1.045,3.9Z" transform="translate(-443.649 -140.402)" fill="#ffb6b6"/>
      <path id="패스_180" data-name="패스 180" d="M439.778,77.045s6.919-2.17,7.689,6.1,1.506,23.419,1.506,23.419,3.955,9.7,2.031,14.714-5.071,1.437-1.938,5.775,2.009,16.57,2.009,16.57l-10.319-.7s-4.629-36.126-4.613-37.043,3.636-28.832,3.636-28.832Z" transform="translate(-436.142 -76.788)" fill="#e6e6e6"/>
    </g>
  </g>
</svg>
