<svg width="23" height="23" viewBox="0 0 23 23" fill="none" xmlns="http://www.w3.org/2000/svg">
<path d="M5.09399 10.7289C4.93215 9.63613 4.99699 8.5217 5.28448 7.45504C5.57198 6.38838 6.07599 5.39234 6.76511 4.52889C7.45422 3.66544 8.31367 2.95308 9.29001 2.43618C10.2663 1.91928 11.3386 1.60889 12.4401 1.52434C13.5416 1.43979 14.6487 1.58288 15.6925 1.94472C16.7363 2.30656 17.6944 2.87939 18.5072 3.62755C19.3201 4.37571 19.9702 5.28319 20.4171 6.29348C20.864 7.30376 21.0982 8.39522 21.105 9.49993C21.106 10.4687 20.9297 11.4295 20.585 12.3349C20.5372 12.4471 20.4972 12.5623 20.465 12.6799C20.45 12.7432 20.442 12.8079 20.441 12.8729C20.4429 12.9784 20.4523 13.0837 20.469 13.1879L20.869 16.4589C20.9245 16.6749 20.9265 16.901 20.875 17.1179C20.8236 17.2309 20.732 17.3207 20.618 17.3699C20.3998 17.4159 20.1737 17.4084 19.959 17.3479L16.773 16.8809C16.6657 16.8612 16.5571 16.8491 16.448 16.8449C16.3808 16.8444 16.3137 16.8515 16.248 16.8659C16.1262 16.899 16.0066 16.9397 15.89 16.9879C14.9817 17.3277 14.0197 17.5011 13.05 17.4999C12.6382 17.5 12.2271 17.4689 11.82 17.4069M6.63199 21.4999C7.72499 21.526 8.80097 21.2257 9.7225 20.6374C10.644 20.0491 11.3693 19.1995 11.8058 18.197C12.2422 17.1946 12.37 16.0849 12.1728 15.0095C11.9756 13.9341 11.4624 12.9419 10.6987 12.1596C9.93496 11.3772 8.95542 10.8402 7.8851 10.6172C6.81479 10.3941 5.70228 10.4951 4.68964 10.9073C3.67699 11.3194 2.81014 12.024 2.1998 12.9311C1.58946 13.8382 1.26331 14.9066 1.263 15.9999C1.2622 16.5933 1.35571 17.183 1.54001 17.7469C1.59038 17.8867 1.63243 18.0292 1.66599 18.1739C1.67831 18.2442 1.68168 18.3158 1.67599 18.3869C1.66264 18.5053 1.64092 18.6226 1.61099 18.7379L1 21.4999L3.995 21.0909C4.09956 21.0735 4.2051 21.0625 4.311 21.0579C4.37449 21.0577 4.43783 21.0641 4.5 21.0769C4.6295 21.1113 4.75701 21.1526 4.88199 21.2009C5.44406 21.3994 6.03589 21.5006 6.63199 21.4999Z" fill="#F2F3F5"/>
<path d="M5.09399 10.7289C4.93215 9.63613 4.99699 8.5217 5.28448 7.45504C5.57198 6.38838 6.07599 5.39234 6.76511 4.52889C7.45422 3.66544 8.31367 2.95308 9.29001 2.43618C10.2663 1.91928 11.3386 1.60889 12.4401 1.52434C13.5416 1.43979 14.6487 1.58288 15.6925 1.94472C16.7363 2.30656 17.6944 2.87939 18.5072 3.62755C19.3201 4.37571 19.9702 5.28319 20.4171 6.29348C20.864 7.30376 21.0982 8.39522 21.105 9.49993C21.106 10.4687 20.9297 11.4295 20.585 12.3349C20.5372 12.4471 20.4972 12.5623 20.465 12.6799C20.45 12.7432 20.442 12.8079 20.441 12.8729C20.4429 12.9784 20.4523 13.0837 20.469 13.1879L20.869 16.4589C20.9245 16.6749 20.9265 16.901 20.875 17.1179C20.8236 17.2309 20.732 17.3207 20.618 17.3699C20.3998 17.4159 20.1737 17.4084 19.959 17.3479L16.773 16.8809C16.6657 16.8612 16.5571 16.8491 16.448 16.8449C16.3808 16.8444 16.3137 16.8515 16.248 16.8659C16.1262 16.899 16.0066 16.9397 15.89 16.9879C14.9817 17.3277 14.0197 17.5011 13.05 17.4999C12.6382 17.5 12.2271 17.4689 11.82 17.4069M6.63199 21.4999C7.72499 21.526 8.80097 21.2257 9.7225 20.6374C10.644 20.0491 11.3693 19.1995 11.8058 18.197C12.2422 17.1946 12.37 16.0849 12.1728 15.0095C11.9756 13.9341 11.4624 12.9419 10.6987 12.1596C9.93496 11.3772 8.95542 10.8402 7.8851 10.6172C6.81479 10.3941 5.70228 10.4951 4.68964 10.9073C3.67699 11.3194 2.81014 12.024 2.1998 12.9311C1.58946 13.8382 1.26331 14.9066 1.263 15.9999C1.2622 16.5933 1.35571 17.183 1.54001 17.7469C1.59038 17.8867 1.63243 18.0292 1.66599 18.1739C1.67831 18.2442 1.68168 18.3158 1.67599 18.3869C1.66264 18.5053 1.64092 18.6226 1.61099 18.7379L1 21.4999L3.995 21.0909C4.09956 21.0735 4.2051 21.0625 4.311 21.0579C4.37449 21.0577 4.43783 21.0641 4.5 21.0769C4.6295 21.1113 4.75701 21.1526 4.88199 21.2009C5.44406 21.3994 6.03589 21.5006 6.63199 21.4999Z" stroke="#FAC213" stroke-width="2" stroke-linecap="round" stroke-linejoin="round"/>
</svg>
