<svg xmlns="http://www.w3.org/2000/svg" width="22" height="20.387" viewBox="0 0 22 20.387">
  <g id="box" transform="translate(-12 -13)">
    <path id="패스_1203" data-name="패스 1203" d="M348,297l-.1-.15a8.766,8.766,0,0,0-1.5-1.94,3.981,3.981,0,0,0-1.377-.737,8.752,8.752,0,0,0-2.447-.173H341.2a4.969,4.969,0,0,1-2.108-.218,2.006,2.006,0,0,1-.874-.874A4.969,4.969,0,0,1,338,290.8v-8.6a4.969,4.969,0,0,1,.218-2.108,2.006,2.006,0,0,1,.874-.874A4.969,4.969,0,0,1,341.2,279h.4c2.24,0,3.36,0,4.216.436a3.991,3.991,0,0,1,1.748,1.748c.436.856.436,1.976.436,4.216m0,11.6V285.4m0,11.6.1-.15a8.766,8.766,0,0,1,1.5-1.94,3.981,3.981,0,0,1,1.377-.737,8.752,8.752,0,0,1,2.447-.173H354.8a4.969,4.969,0,0,0,2.108-.218,2.006,2.006,0,0,0,.874-.874A4.969,4.969,0,0,0,358,290.8v-8.6a4.969,4.969,0,0,0-.218-2.108,2.006,2.006,0,0,0-.874-.874A4.969,4.969,0,0,0,354.8,279h-.4c-2.24,0-3.36,0-4.216.436a3.991,3.991,0,0,0-1.748,1.748C348,282.04,348,283.16,348,285.4" transform="translate(-325 -265)" fill="none" stroke="#3b8686" stroke-linecap="round" stroke-linejoin="round" stroke-width="2"/>
  </g>
</svg>
