<svg xmlns="http://www.w3.org/2000/svg" width="20.859" height="22.954" viewBox="0 0 20.859 22.954">
  <path id="패스_2900" data-name="패스 2900" d="M357.859,206.382H339M352.62,198v4.191M344.239,198v4.191m2.619,8.382,1.572-1.048v5.239m-1.31,0h2.619m-5.71,4.191h8.8c1.76,0,2.64,0,3.313-.343a3.152,3.152,0,0,0,1.374-1.374c.343-.673.343-1.553.343-3.313v-8.8c0-1.76,0-2.64-.343-3.313a3.152,3.152,0,0,0-1.374-1.374c-.673-.343-1.553-.343-3.313-.343h-8.8c-1.76,0-2.64,0-3.313.343a3.152,3.152,0,0,0-1.374,1.374c-.343.673-.343,1.553-.343,3.313v8.8c0,1.76,0,2.64.343,3.313a3.152,3.152,0,0,0,1.374,1.374C341.389,218.954,342.269,218.954,344.029,218.954Z" transform="translate(-338 -197)" fill="none" stroke="#3b8686" stroke-linecap="round" stroke-linejoin="round" stroke-width="2"/>
</svg>
