<svg width="22" height="23" viewBox="0 0 22 23" fill="none" xmlns="http://www.w3.org/2000/svg">
<path d="M7.24298 7.62089H7.25299M1.24298 4.8209V9.29588C1.22505 9.61792 1.24349 9.94098 1.29797 10.2589C1.34683 10.4634 1.42783 10.6588 1.53796 10.8379C1.72409 11.1013 1.9395 11.3429 2.17999 11.5579L9.84899 19.2269C10.5178 20.0647 11.3592 20.7485 12.316 21.2319C12.9186 21.4269 13.5674 21.4269 14.17 21.2319C15.1268 20.7485 15.9682 20.0647 16.637 19.2269L18.849 17.0149C19.6868 16.3461 20.3706 15.5047 20.854 14.5479C21.049 13.9453 21.049 13.2965 20.854 12.6939C20.3706 11.7371 19.6868 10.8957 18.849 10.2269L11.18 2.5579C10.965 2.31741 10.7234 2.10201 10.46 1.91587C10.2809 1.80575 10.0855 1.72475 9.88098 1.67588C9.56306 1.62141 9.24001 1.60296 8.91796 1.62089H4.44299C3.73282 1.54113 3.01377 1.6155 2.33496 1.83891C1.95885 2.03093 1.65302 2.33677 1.46099 2.71287C1.23759 3.39168 1.16321 4.11073 1.24298 4.8209ZM7.74298 7.62089C7.74298 7.71978 7.71363 7.81644 7.65869 7.89866C7.60374 7.98089 7.52568 8.04496 7.43432 8.0828C7.34296 8.12065 7.24243 8.1306 7.14544 8.11131C7.04845 8.09201 6.95932 8.04439 6.8894 7.97447C6.81947 7.90454 6.77185 7.81541 6.75256 7.71842C6.73327 7.62143 6.74322 7.52091 6.78106 7.42954C6.8189 7.33818 6.88298 7.26012 6.9652 7.20518C7.04743 7.15024 7.14408 7.12089 7.24298 7.12089C7.37558 7.12089 7.50278 7.17354 7.59655 7.26731C7.69032 7.36108 7.74298 7.48828 7.74298 7.62089Z" stroke="#FF5858" stroke-width="2" stroke-linecap="round" stroke-linejoin="round"/>
</svg>
