<svg xmlns="http://www.w3.org/2000/svg" width="18" height="22" viewBox="0 0 18 22">
  <g id="box" transform="translate(-14 -12)">
    <path id="패스_1201" data-name="패스 1201" d="M356,255v-3H343a3,3,0,0,0-3,3m4.8,3h8a4.969,4.969,0,0,0,2.108-.218,2.006,2.006,0,0,0,.874-.874A4.969,4.969,0,0,0,356,254.8V241.2a4.97,4.97,0,0,0-.218-2.108,2.006,2.006,0,0,0-.874-.874A4.969,4.969,0,0,0,352.8,238h-8a7.454,7.454,0,0,0-3.162.327,3.009,3.009,0,0,0-1.311,1.311A7.454,7.454,0,0,0,340,242.8v10.4a7.454,7.454,0,0,0,.327,3.162,3.009,3.009,0,0,0,1.311,1.311A7.454,7.454,0,0,0,344.8,258Z" transform="translate(-325 -225)" fill="none" stroke="#3b8686" stroke-linecap="round" stroke-linejoin="round" stroke-width="2"/>
  </g>
</svg>
