<svg xmlns="http://www.w3.org/2000/svg" width="22" height="22" viewBox="0 0 22 22">
  <path id="패스_1464" data-name="패스 1464" d="M620,642v16m0-16h-3.536a1.948,1.948,0,0,1-1.389-.586,2.026,2.026,0,0,1,0-2.828,1.948,1.948,0,0,1,1.389-.586C619.214,638,620,642,620,642Zm0,0h3.536a1.948,1.948,0,0,0,1.389-.586,2.026,2.026,0,0,0,0-2.828,1.948,1.948,0,0,0-1.389-.586C620.786,638,620,642,620,642Zm8,5v7.8a4.969,4.969,0,0,1-.218,2.108,2.005,2.005,0,0,1-.874.874A4.969,4.969,0,0,1,624.8,658h-9.6a4.969,4.969,0,0,1-2.108-.218,2.005,2.005,0,0,1-.874-.874A4.969,4.969,0,0,1,612,654.8V647m-2-3.4v1.8a2.484,2.484,0,0,0,.109,1.054,1,1,0,0,0,.437.437A2.484,2.484,0,0,0,611.6,647h16.8a2.484,2.484,0,0,0,1.054-.109,1,1,0,0,0,.437-.437A2.484,2.484,0,0,0,630,645.4v-1.8a2.484,2.484,0,0,0-.109-1.054,1,1,0,0,0-.437-.437A2.484,2.484,0,0,0,628.4,642H611.6a2.484,2.484,0,0,0-1.054.109,1,1,0,0,0-.437.437A2.484,2.484,0,0,0,610,643.6Z" transform="translate(-609 -637)" fill="none" stroke="#3b8686" stroke-linecap="round" stroke-linejoin="round" stroke-width="2"/>
</svg>
