<svg xmlns="http://www.w3.org/2000/svg" width="22" height="21.111" viewBox="0 0 22 21.111">
  <g id="box" transform="translate(-11.5 -11.947)">
    <path id="패스_403" data-name="패스 403" d="M68,410l1.575,6.3c.044.178.066.266.093.344a2,2,0,0,0,1.731,1.351c.081.007.173.007.355.007.229,0,.343,0,.439-.009a2,2,0,0,0,1.8-1.8c.009-.1.009-.211.009-.439V401.5m8.5,8a3.5,3.5,0,0,0,0-7m-8.25-1H70.5a4.5,4.5,0,0,0,0,9h3.75a13.113,13.113,0,0,1,5.594,1.856c.973.53,1.459.8,1.777.756a.946.946,0,0,0,.692-.411c.187-.261.187-.783.187-1.827v-9.748c0-1.044,0-1.566-.187-1.827a.946.946,0,0,0-.692-.411c-.318-.039-.8.226-1.777.756A13.113,13.113,0,0,1,74.25,401.5Z" transform="translate(-53.5 -385.942)" fill="none" stroke="#3b8686" stroke-linecap="round" stroke-linejoin="round" stroke-width="2"/>
  </g>
</svg>
