<svg xmlns="http://www.w3.org/2000/svg" width="22" height="18" viewBox="0 0 22 18">
  <path id="패스_2219" data-name="패스 2219" d="M890,284v-1m0,5.5v-1m0,5.5v-1m-4.8-12h13.6a4.97,4.97,0,0,1,2.108.218,2.006,2.006,0,0,1,.874.874A4.969,4.969,0,0,1,902,283.2v1.3a3.5,3.5,0,0,0,0,7v1.3a4.969,4.969,0,0,1-.218,2.108,2.006,2.006,0,0,1-.874.874A4.97,4.97,0,0,1,898.8,296H885.2a4.97,4.97,0,0,1-2.108-.218,2.006,2.006,0,0,1-.874-.874A4.969,4.969,0,0,1,882,292.8v-1.3a3.5,3.5,0,0,0,0-7v-1.3a4.969,4.969,0,0,1,.218-2.108,2.006,2.006,0,0,1,.874-.874A4.97,4.97,0,0,1,885.2,280Z" transform="translate(-881 -279)" fill="none" stroke="#3b8686" stroke-linecap="round" stroke-linejoin="round" stroke-width="2"/>
</svg>
