<svg width="19" height="24" viewBox="0 0 19 24" fill="none" xmlns="http://www.w3.org/2000/svg">
<path d="M17.502 11.8999V6.79992C17.6216 5.73467 17.5101 4.65616 17.175 3.63793C16.8869 3.07384 16.4281 2.61505 15.864 2.32693C14.8458 1.99184 13.7673 1.8803 12.702 1.99993H6.30198C5.23673 1.8803 4.15822 1.99184 3.13999 2.32693C2.5759 2.61505 2.11711 3.07384 1.82899 3.63793C1.4939 4.65616 1.38236 5.73467 1.50199 6.79992V17.1999C1.38236 18.2652 1.4939 19.3437 1.82899 20.3619C2.11711 20.926 2.5759 21.3848 3.13999 21.6729C4.15822 22.008 5.23673 22.1196 6.30198 21.9999H8.53401M10.002 10.9999H5.50199M6.50199 14.9999H5.50199M13.502 6.99993H5.50199" stroke="#36AE7C" stroke-width="2" stroke-linecap="round" stroke-linejoin="round"/>
<path d="M11.164 22.0009L13.27 21.1909C13.3605 21.1594 13.449 21.1223 13.535 21.0799C13.5906 21.0509 13.6438 21.0175 13.694 20.9799C13.768 20.9176 13.8381 20.8508 13.904 20.7799L18.186 16.4929C18.3757 16.2889 18.4787 16.0192 18.4733 15.7406C18.4679 15.4621 18.3544 15.1966 18.1569 15.0001C17.9594 14.8036 17.6933 14.6916 17.4147 14.6876C17.1362 14.6837 16.867 14.7881 16.664 14.9789L12.383 19.2599C12.312 19.3254 12.2452 19.3952 12.183 19.4689C12.1454 19.5191 12.1119 19.5723 12.083 19.6279C12.0404 19.7139 12.003 19.8024 11.971 19.8929L11.164 22.0009ZM11.164 22.0009L11.945 19.9699C12.001 19.8249 12.029 19.7519 12.077 19.7189C12.0978 19.7044 12.1211 19.6942 12.1459 19.6889C12.1706 19.6836 12.1962 19.6832 12.221 19.6879C12.278 19.6989 12.333 19.7539 12.443 19.8639L13.301 20.7209C13.411 20.8309 13.466 20.8869 13.477 20.9439C13.4817 20.9688 13.4813 20.9943 13.476 21.019C13.4707 21.0438 13.4605 21.0671 13.446 21.0879C13.413 21.1359 13.34 21.1639 13.195 21.2199L11.164 22.0009Z" stroke="#36AE7C" stroke-linecap="round" stroke-linejoin="round"/>
</svg>
