<svg width="21" height="23" viewBox="0 0 21 23" fill="none" xmlns="http://www.w3.org/2000/svg">
<path d="M5.428 10.6891L1.628 3.88108C1.191 3.09808 0.972 2.70608 1.009 2.38108C1.02452 2.24231 1.06894 2.10833 1.13938 1.98777C1.20982 1.86721 1.30473 1.76273 1.418 1.68107C1.68 1.49207 2.128 1.49207 3.025 1.49207H5.26C5.47752 1.47605 5.6962 1.49223 5.90899 1.54008C6.04086 1.5813 6.16276 1.64938 6.267 1.74006C6.41644 1.89906 6.54147 2.07936 6.638 2.27506L10.293 8.50007L13.953 2.28806C14.0495 2.09237 14.1746 1.91207 14.324 1.75306C14.4282 1.66238 14.5501 1.5943 14.682 1.55308C14.8948 1.50521 15.1135 1.48903 15.331 1.50507H17.566C18.466 1.50507 18.911 1.50507 19.173 1.69407C19.2863 1.77573 19.3812 1.88021 19.4516 2.00077C19.5221 2.12133 19.5665 2.25531 19.582 2.39408C19.619 2.71408 19.4 3.10608 18.963 3.89408L15.163 10.7021M8.793 13.5001L10.293 12.5001V17.5001M9.043 17.5001H11.543M14.889 10.4001C15.7981 11.3091 16.4172 12.4673 16.6681 13.7282C16.9189 14.989 16.7902 16.296 16.2983 17.4838C15.8063 18.6715 14.9732 19.6867 13.9043 20.401C12.8353 21.1152 11.5786 21.4965 10.293 21.4965C9.00739 21.4965 7.75066 21.1152 6.68173 20.401C5.6128 19.6867 4.77968 18.6715 4.28772 17.4838C3.79577 16.296 3.66709 14.989 3.91794 13.7282C4.16878 12.4673 4.7879 11.3091 5.697 10.4001C6.30064 9.79594 7.01742 9.3167 7.80637 8.98972C8.59532 8.66275 9.44097 8.49445 10.295 8.49445C11.149 8.49445 11.9947 8.66275 12.7836 8.98972C13.5726 9.3167 14.2893 9.79594 14.893 10.4001H14.889Z" stroke="#9A1663" stroke-width="2" stroke-linecap="round" stroke-linejoin="round"/>
</svg>
