<svg width="20" height="22" viewBox="0 0 20 22" fill="none" xmlns="http://www.w3.org/2000/svg">
<path d="M6.99999 17.5H13M4.99999 14H15M2.99999 1H17C17.5593 1.03102 18.0836 1.28213 18.4583 1.69847C18.833 2.11481 19.0278 2.66254 19 3.222V18.778C19.0278 19.3375 18.833 19.8852 18.4583 20.3015C18.0836 20.7179 17.5593 20.969 17 21H2.99999C2.4407 20.969 1.91642 20.7179 1.54168 20.3015C1.16694 19.8852 0.972182 19.3375 0.999992 18.778V3.222C0.972182 2.66254 1.16694 2.11481 1.54168 1.69847C1.91642 1.28213 2.4407 1.03102 2.99999 1ZM9.99999 5.21201C9.66987 4.81575 9.19737 4.56492 8.6842 4.51349C8.17102 4.46206 7.65816 4.61414 7.25597 4.937C7.05082 5.09409 6.87949 5.29097 6.75219 5.51582C6.62489 5.74068 6.54426 5.98891 6.51513 6.24565C6.486 6.50239 6.50901 6.76236 6.5827 7.01003C6.65638 7.25769 6.77922 7.48794 6.94396 7.687C7.90744 8.68291 8.92785 9.62215 9.99999 10.5C11.0718 9.62207 12.0918 8.68283 13.055 7.687C13.2215 7.4887 13.3459 7.2586 13.4206 7.0107C13.4953 6.76279 13.5188 6.50227 13.4896 6.245C13.4604 5.98772 13.3792 5.73907 13.2508 5.51421C13.1225 5.28934 12.9497 5.09295 12.743 4.937C12.3403 4.61569 11.828 4.46459 11.3155 4.51598C10.8029 4.56736 10.3308 4.81716 9.99999 5.21201Z" stroke="#187498" stroke-width="2" stroke-linecap="round" stroke-linejoin="round"/>
</svg>
