<svg width="22" height="19" viewBox="0 0 22 19" fill="none" xmlns="http://www.w3.org/2000/svg">
<path d="M4 7.52889V13.5399C3.98108 13.7747 3.99964 14.011 4.05499 14.2399C4.1033 14.3801 4.18222 14.5079 4.28601 14.6139C4.4658 14.7647 4.66827 14.8863 4.88599 14.9739L10.286 17.6739C10.4528 17.7712 10.6316 17.8462 10.818 17.8969C10.9396 17.9199 11.0644 17.9199 11.186 17.8969C11.3723 17.8462 11.5512 17.7712 11.718 17.6739L17.118 14.9739C17.3357 14.8863 17.5382 14.7647 17.718 14.6139C17.8218 14.5079 17.9007 14.3801 17.949 14.2399C18.0043 14.011 18.0229 13.7747 18.004 13.5399V7.52889M1.00403 6.02889L10.646 1.20788C10.7292 1.15901 10.8187 1.12167 10.912 1.09689C10.9727 1.08489 11.0353 1.08489 11.096 1.09689C11.1893 1.12167 11.2788 1.15901 11.362 1.20788L21 6.02889L11.358 10.8499C11.275 10.8992 11.1854 10.9366 11.092 10.9609C11.0312 10.9729 10.9688 10.9729 10.908 10.9609C10.8146 10.9366 10.725 10.8992 10.642 10.8499L1.00403 6.02889Z" stroke="#EB5353" stroke-width="2" stroke-linecap="round" stroke-linejoin="round"/>
</svg>
