<svg width="22" height="23" viewBox="0 0 22 23" fill="none" xmlns="http://www.w3.org/2000/svg">
<path d="M3 13.0579L4.575 19.3579C4.619 19.5359 4.641 19.6239 4.668 19.7019C4.79331 20.0714 5.02395 20.3962 5.33151 20.6362C5.63908 20.8763 6.01015 21.0211 6.399 21.0529C6.48 21.0599 6.572 21.0599 6.754 21.0599C6.983 21.0599 7.097 21.0599 7.193 21.0509C7.65537 21.0066 8.0879 20.8027 8.41634 20.4743C8.74479 20.1458 8.94867 19.7133 8.993 19.2509C9.002 19.1509 9.002 19.0399 9.002 18.8119V4.5579M17.502 12.5579C18.4303 12.5579 19.3205 12.1892 19.9769 11.5328C20.6333 10.8764 21.002 9.98616 21.002 9.0579C21.002 8.12964 20.6333 7.23939 19.9769 6.58302C19.3205 5.92664 18.4303 5.5579 17.502 5.5579M9.252 4.5579H5.5C4.30653 4.5579 3.16193 5.03201 2.31802 5.87592C1.4741 6.71984 1 7.86443 1 9.0579C1 10.2514 1.4741 11.396 2.31802 12.2399C3.16193 13.0838 4.30653 13.5579 5.5 13.5579H9.25C11.2313 13.7441 13.1443 14.3788 14.844 15.4139C15.817 15.9439 16.303 16.2139 16.621 16.1699C16.7595 16.1565 16.8933 16.1127 17.0129 16.0417C17.1325 15.9706 17.235 15.8741 17.313 15.7589C17.5 15.4979 17.5 14.9759 17.5 13.9319V4.18391C17.5 3.13991 17.5 2.61791 17.313 2.35691C17.235 2.24174 17.1325 2.14518 17.0129 2.07414C16.8933 2.0031 16.7595 1.95931 16.621 1.9459C16.303 1.9069 15.821 2.17191 14.844 2.70191C13.1443 3.73705 11.2313 4.37173 9.25 4.5579H9.252Z" stroke="#051367" stroke-width="2" stroke-linecap="round" stroke-linejoin="round"/>
</svg>
